<svg width="139" height="51" viewBox="0 0 139 51" fill="none" xmlns="http://www.w3.org/2000/svg">
<path d="M3.36146 37.6119C4.81225 38.5574 8.40556 41.4764 11.3918 44.0728C19.2853 50.9951 21.9261 52.1068 23.3787 49.1693C24.1142 47.6375 22.2636 44.6152 18.6128 41.287C17.7236 40.4941 16.9316 39.6752 16.9013 39.562C16.871 39.4488 20.3226 40.2825 24.527 41.3996C38.2148 45.0694 50.668 46.4616 63.6079 45.7821C71.3682 45.3996 87.1759 41.0391 94.8983 37.2089C108.442 30.4222 118.759 22.8629 130.766 10.7251C136.589 4.85639 138.925 2.10666 138.874 1.33176C138.762 0.330454 138.504 0.338994 136.961 0.995342C135.938 1.45178 132.603 4.16604 129.508 6.998C116.934 18.3779 102.205 27.5451 86.2502 33.8862C72.4063 39.358 58.8223 40.9383 41.5086 39.0902C35.619 38.4857 23.1088 35.7134 20.1493 34.3838C18.9169 33.865 18.9503 33.7954 20.8241 32.6255C23.7729 30.8034 24.6024 29.4284 24.0872 27.5039C23.1628 24.0512 17.3672 23.6035 8.13027 26.4446C2.78304 28.0606 1.85684 28.491 0.915029 29.8355C0.137262 31.0147 -0.0241055 31.968 0.318182 33.6355C0.68766 35.599 1.08211 36.0998 3.36146 37.6119Z" fill="#ECFFFC"/>
</svg>
