<svg width="128" height="29" viewBox="0 0 128 29" fill="none" xmlns="http://www.w3.org/2000/svg">
<path d="M2.21076 10.2058C3.32568 11.2913 5.98695 14.4888 8.169 17.2965C13.9265 24.7701 16.0618 26.2089 17.8526 23.8712C18.767 22.6483 17.6601 19.6624 15.0192 16.0941C14.3729 15.2407 13.8168 14.3812 13.8098 14.2761C13.8027 14.171 16.7011 15.5054 20.214 17.2203C31.6449 22.8325 42.3827 26.2222 53.9093 27.8699C60.8178 28.8801 75.512 27.7803 82.9856 25.7442C96.1053 22.1123 106.514 17.2389 119.208 8.62228C125.361 4.45904 127.898 2.4403 127.987 1.7482C128.062 0.845959 127.833 0.80868 126.359 1.11951C125.378 1.34424 121.966 3.15828 118.746 5.11772C105.683 12.9677 91.1052 18.4926 75.9378 21.3131C62.782 23.7337 50.5311 22.7684 35.5871 18.1327C30.4994 16.5771 19.9509 11.9607 17.5725 10.2746C16.576 9.60318 16.6176 9.5476 18.4727 8.84156C21.389 7.74709 22.3591 6.67875 22.239 4.89258C22.0235 1.68797 16.9915 0.286925 8.35424 1.18798C3.35919 1.68428 2.46786 1.90291 1.40405 2.92481C0.51356 3.82944 0.205779 4.64187 0.218031 6.17148C0.202852 7.9668 0.46366 8.47689 2.21076 10.2058Z" fill="#962985" fill-opacity="0.5"/>
</svg>
