<svg width="24" height="24" viewBox="0 0 24 24" fill="none" xmlns="http://www.w3.org/2000/svg">
<g clip-path="url(#clip0_69_963)">
<path fill-rule="evenodd" clip-rule="evenodd" d="M12.5125 13.9276L18.274 19.6891C18.4661 19.8746 18.7233 19.9773 18.9904 19.9749C19.2574 19.9726 19.5129 19.8655 19.7017 19.6767C19.8905 19.4878 19.9976 19.2324 20 18.9654C20.0023 18.6983 19.8996 18.441 19.7141 18.249L13.9526 12.4875L19.7141 6.72601C19.8996 6.53392 20.0023 6.27666 20 6.00962C19.9976 5.74258 19.8905 5.48713 19.7017 5.2983C19.5129 5.10947 19.2574 5.00236 18.9904 5.00004C18.7233 4.99772 18.4661 5.10037 18.274 5.2859L12.5125 11.0474L6.75104 5.2859C6.55809 5.10496 6.30232 5.00619 6.03784 5.01048C5.77336 5.01478 5.52093 5.1218 5.33395 5.30891C5.14698 5.49601 5.04014 5.74852 5.03603 6.013C5.03192 6.27748 5.13087 6.53319 5.31194 6.72601L11.0724 12.4875L5.31093 18.249C5.21365 18.3429 5.13606 18.4553 5.08269 18.5795C5.02931 18.7038 5.00121 18.8375 5.00004 18.9727C4.99886 19.1079 5.02463 19.242 5.07584 19.3672C5.12705 19.4924 5.20268 19.6061 5.2983 19.7017C5.39393 19.7973 5.50764 19.8729 5.63281 19.9242C5.75798 19.9754 5.89209 20.0011 6.02732 20C6.16255 19.9988 6.29619 19.9707 6.42045 19.9173C6.54471 19.8639 6.65709 19.7863 6.75104 19.6891L12.5125 13.9276Z" fill="#555555"/>
</g>
<defs>
<clipPath id="clip0_69_963">
<rect width="24" height="24" rx="5" fill="white"/>
</clipPath>
</defs>
</svg>
