<svg width="26" height="26" viewBox="0 0 26 26" fill="none" xmlns="http://www.w3.org/2000/svg">
<path d="M3.25 5.41663V4.60413C3.03451 4.60413 2.82785 4.68973 2.67548 4.8421C2.5231 4.99447 2.4375 5.20114 2.4375 5.41663H3.25ZM22.75 5.41663H23.5625C23.5625 5.20114 23.4769 4.99447 23.3245 4.8421C23.1722 4.68973 22.9655 4.60413 22.75 4.60413V5.41663ZM3.25 6.22913H22.75V4.60413H3.25V6.22913ZM21.9375 5.41663V18.4166H23.5625V5.41663H21.9375ZM20.5833 19.7708H5.41667V21.3958H20.5833V19.7708ZM4.0625 18.4166V5.41663H2.4375V18.4166H4.0625ZM5.41667 19.7708C4.66917 19.7708 4.0625 19.1641 4.0625 18.4166H2.4375C2.4375 19.2067 2.75138 19.9645 3.31008 20.5232C3.86878 21.0819 4.62654 21.3958 5.41667 21.3958V19.7708ZM21.9375 18.4166C21.9375 19.1641 21.3308 19.7708 20.5833 19.7708V21.3958C21.3735 21.3958 22.1312 21.0819 22.6899 20.5232C23.2486 19.9645 23.5625 19.2067 23.5625 18.4166H21.9375Z" fill="#28282B" fill-opacity="0.8"/>
<path d="M3.25 5.41663L13 15.1666L22.75 5.41663" stroke="#28282B" stroke-opacity="0.8" stroke-width="1.5" stroke-linecap="round" stroke-linejoin="round"/>
</svg>
