<svg width="26" height="26" viewBox="0 0 26 26" fill="none" xmlns="http://www.w3.org/2000/svg">
<path d="M14.8484 4.71765C14.8691 4.64027 14.9048 4.56771 14.9535 4.50413C15.0021 4.44054 15.0629 4.38718 15.1322 4.3471C15.2015 4.30701 15.2781 4.28098 15.3575 4.2705C15.4369 4.26001 15.5176 4.26528 15.5949 4.28601C17.0668 4.66993 18.4096 5.43931 19.4852 6.51488C20.5608 7.59045 21.3301 8.93331 21.7141 10.4051C21.7348 10.4825 21.7401 10.5632 21.7296 10.6426C21.7191 10.722 21.6931 10.7985 21.653 10.8679C21.6129 10.9372 21.5595 10.9979 21.496 11.0466C21.4324 11.0953 21.3598 11.131 21.2824 11.1516C21.2311 11.1652 21.1781 11.1721 21.125 11.1719C20.9908 11.172 20.8602 11.1278 20.7537 11.046C20.6472 10.9643 20.5706 10.8497 20.5359 10.72C20.2063 9.45573 19.5456 8.30223 18.6217 7.37838C17.6979 6.45453 16.5444 5.79374 15.2801 5.46413C15.2027 5.4435 15.1302 5.40782 15.0666 5.35913C15.003 5.31044 14.9496 5.24969 14.9095 5.18036C14.8694 5.11103 14.8434 5.03448 14.8329 4.95508C14.8225 4.87569 14.8277 4.795 14.8484 4.71765ZM14.4676 8.71413C15.9453 9.10819 16.8919 10.0548 17.2859 11.5325C17.3206 11.6622 17.3972 11.7768 17.5037 11.8585C17.6102 11.9403 17.7408 11.9845 17.875 11.9844C17.9281 11.9846 17.9811 11.9777 18.0324 11.9641C18.1098 11.9435 18.1824 11.9078 18.246 11.8591C18.3095 11.8104 18.3629 11.7497 18.403 11.6804C18.4431 11.611 18.4691 11.5345 18.4796 11.4551C18.4901 11.3757 18.4848 11.295 18.4641 11.2176C17.9563 9.31741 16.6827 8.04382 14.7824 7.53601C14.7051 7.51533 14.6244 7.5101 14.545 7.5206C14.4656 7.53111 14.3891 7.55714 14.3198 7.59722C14.2505 7.63731 14.1897 7.69065 14.141 7.75421C14.0923 7.81776 14.0566 7.89029 14.0359 7.96765C14.0153 8.045 14.01 8.12568 14.0205 8.20505C14.031 8.28443 14.0571 8.36097 14.0972 8.43028C14.1372 8.4996 14.1906 8.56035 14.2541 8.60905C14.3177 8.65775 14.3902 8.69346 14.4676 8.71413ZM22.5357 18.5657C22.3617 19.8934 21.7102 21.1122 20.7029 21.9944C19.6956 22.8767 18.4015 23.3619 17.0625 23.3594C9.11017 23.3594 2.64064 16.8899 2.64064 8.93757C2.63807 7.59902 3.12287 6.30531 4.00449 5.2981C4.8861 4.29088 6.10423 3.63905 7.43134 3.46437C7.73684 3.42724 8.04613 3.49023 8.31278 3.64388C8.57942 3.79753 8.78902 4.03355 8.91009 4.31648L11.0531 9.10007C11.1477 9.31663 11.1868 9.55336 11.167 9.78885C11.1471 10.0243 11.0689 10.2512 10.9393 10.4488C10.9262 10.4689 10.912 10.4883 10.8967 10.5067L8.75673 13.0519C8.74374 13.0782 8.73698 13.1073 8.73698 13.1367C8.73698 13.1661 8.74374 13.1951 8.75673 13.2215C9.5347 14.814 11.2044 16.4715 12.8192 17.2484C12.8462 17.2607 12.8756 17.2666 12.9053 17.2655C12.9349 17.2645 12.9638 17.2565 12.9899 17.2423L15.4974 15.1095C15.5154 15.094 15.5344 15.0797 15.5543 15.0669C15.7511 14.9357 15.9775 14.8556 16.213 14.834C16.4485 14.8124 16.6857 14.8498 16.9031 14.943L21.7009 17.093C21.98 17.2168 22.212 17.4271 22.3623 17.6928C22.5127 17.9586 22.5735 18.2657 22.5357 18.5687V18.5657ZM21.3281 18.4154C21.3315 18.3729 21.3215 18.3304 21.2995 18.294C21.2774 18.2575 21.2444 18.2289 21.2052 18.2123L16.4064 16.0622C16.3802 16.0521 16.3521 16.0477 16.3241 16.0495C16.296 16.0512 16.2687 16.059 16.2439 16.0723L13.7374 18.2051C13.7191 18.2204 13.6998 18.2346 13.6805 18.2478C13.476 18.3841 13.2397 18.4652 12.9946 18.483C12.7495 18.5008 12.504 18.4547 12.282 18.3494C10.4173 17.4485 8.55868 15.6072 7.65782 13.7598C7.55187 13.539 7.5047 13.2947 7.52089 13.0504C7.53709 12.8061 7.61609 12.5701 7.75024 12.3653C7.7634 12.345 7.778 12.3256 7.79392 12.3074L9.93181 9.75921C9.94403 9.73261 9.95036 9.70368 9.95036 9.6744C9.95036 9.64513 9.94403 9.6162 9.93181 9.5896L7.79392 4.80499C7.7798 4.76657 7.75441 4.7333 7.72106 4.70956C7.68771 4.68582 7.64797 4.67271 7.60704 4.67194H7.58368C6.55073 4.80935 5.60311 5.31803 4.91776 6.10299C4.23242 6.88795 3.85621 7.89553 3.85939 8.93757C3.85939 16.2176 9.78251 22.1407 17.0625 22.1407C18.1047 22.1438 19.1124 21.7675 19.8974 21.0819C20.6824 20.3964 21.191 19.4485 21.3281 18.4154Z" fill="black"/>
</svg>
